<?xml version="1.0" encoding="utf-8"?>
<!-- Generator: Adobe Illustrator 16.0.0, SVG Export Plug-In . SVG Version: 6.00 Build 0)  -->
<!DOCTYPE svg PUBLIC "-//W3C//DTD SVG 1.1//EN" "http://www.w3.org/Graphics/SVG/1.1/DTD/svg11.dtd">
<svg version="1.1" id="Layer_1" xmlns="http://www.w3.org/2000/svg" xmlns:xlink="http://www.w3.org/1999/xlink" x="0px" y="0px"
	 width="293px" height="283.465px" viewBox="0 0 293 283.465" enable-background="new 0 0 293 283.465" xml:space="preserve">
	<path fill="#197B92" d="M72.878,170.437l-6.197,0.025c-7.198,0.027-13.049-5.798-13.049-12.996V50.402
		c0-7.178,5.821-12.995,12.999-12.995h92.151c7.177,0,12.994,5.817,12.994,12.995v107.117c0,7.176-5.817,12.995-12.994,12.995h-3.941
		c-7.177,0-12.994,5.817-12.994,12.995c0,7.179,5.817,12.996,12.994,12.996h30.719c7.178,0,12.995-5.817,12.995-12.996V25.655
		c0-7.178-5.817-12.997-12.995-12.997H42.127c-7.178,0-12.996,5.819-12.996,12.997v157.854c0,7.179,5.818,12.996,12.996,12.996
		h30.804c7.177,0,12.995-5.817,12.995-12.996v-0.077C85.926,176.232,80.076,170.406,72.878,170.437"/>
	<path fill="#E45E26" d="M222.778,114.448l6.198-0.024c7.197-0.028,13.048,5.797,13.048,12.995v107.065
	c0,7.179-5.821,12.995-12.996,12.995h-92.154c-7.176,0-12.994-5.816-12.994-12.995V127.365c0-7.174,5.818-12.994,12.994-12.994
	h3.941c7.177,0,12.994-5.818,12.994-12.996c0-7.177-5.817-12.995-12.994-12.995h-30.718c-7.179,0-12.996,5.818-12.996,12.995
	v157.854c0,7.18,5.816,13,12.996,13H253.53c7.177,0,12.994-5.82,12.994-13V101.375c0-7.177-5.817-12.995-12.994-12.995h-30.805
	c-7.179,0-12.996,5.818-12.996,12.995v0.078C209.729,108.651,215.582,114.477,222.778,114.448"/>
</svg>
